# AST/ASF file generated using VICON BodyLanguage
# -----------------------------------------------
:version 1.10
:name VICON
:units
  mass 1.0
  length 0.45
  angle deg
:documentation
   .ast/.asf automatically generated from VICON data using
   VICON BodyBuilder and BodyLanguage model FoxedUp or BRILLIANT.MOD
:root
   order TX TY TZ RX RY RZ
   axis XYZ
   position 0 0 0  
   orientation 0 0 0 
:bonedata
  begin
     id 1 
     name lhipjoint
     direction 0.543289 -0.788407 0.288535 
     length 2.57127 
     axis 0 0 0  XYZ
  end
  begin
     id 2 
     name lfemur
     direction 0.34202 -0.939693 0  
     length 8.47298  
     axis 0 0 20  XYZ
    dof rx ry rz
    limits (-160.0 20.0)
           (-70.0 70.0)
           (-60.0 70.0)
  end
  begin
     id 3 
     name ltibia
     direction 0.34202 -0.939693 0   
     length 8.13367   
     axis 0 0 20   XYZ
    dof rx
    limits (-10.0 170.0)
  end
  begin
     id 4 
     name lfoot
     direction 0.114037 -0.313314 0.942778   
     length 2.67113   
     axis -90 7.62852e-016 20   XYZ
    dof rx rz
    limits (-45.0 90.0)
           (-70.0 20.0)
  end
  begin
     id 5 
     name ltoes
     direction 1.536e-011 -4.21847e-011 1   
     length 1.32217   
     axis -90 7.62852e-016 20   XYZ
    dof rx
    limits (-90.0 20.0)
  end
  begin
     id 6 
     name rhipjoint
     direction -0.571293 -0.770752 0.282074   
     length 2.63017  
     axis 0 0 0  XYZ 
  end
  begin
     id 7 
     name rfemur
     direction -0.34202 -0.939693 0   
     length 8.60885   
     axis 0 0 -20   XYZ
    dof rx ry rz
    limits (-160.0 20.0)
           (-70.0 70.0)
           (-70.0 60.0)
  end
  begin
     id 8 
     name rtibia
     direction -0.34202 -0.939693 0   
     length 8.07673   
     axis 0 0 -20   XYZ
    dof rx
    limits (-10.0 170.0)
 end
 begin
     id 9 
     name rfoot
     direction -0.121336 -0.333368 0.934956   
     length 2.81602  
     axis -90 -7.62852e-016 -20   XYZ
    dof rx rz
    limits (-45.0 90.0)
           (-20.0 70.0)
  end
  begin
     id 10 
     name rtoes
     direction -1.53491e-011 -4.21808e-011 1   
     length 1.38905   
     axis -90 -7.62852e-016 -20   XYZ
    dof rx
    limits (-90.0 20.0)
  end
  begin
     id 11 
     name lowerback
     direction 0.0136776 0.999869 -0.00861835   
     length 2.14087   
     axis 0 0 0   XYZ
    dof rx ry rz
    limits (-20.0 45.0)
           (-30.0 30.0)
           (-30.0 30.0)
  end
  begin
     id 12 
     name upperback
     direction -0.00789158 0.999804 0.0181308   
     length 2.14151   
     axis 0 0 0   XYZ
    dof rx ry rz
    limits (-20.0 45.0)
           (-30.0 30.0)
           (-30.0 30.0)
  end
  begin
     id 13 
     name thorax
     direction -0.0135231 0.999666 0.0220247   
     length 2.13644   
     axis 0 0 0   XYZ
    dof rx ry rz
    limits (-20.0 45.0)
           (-30.0 30.0)
           (-30.0 30.0)
  end
  begin
     id 14 
     name lowerneck
     direction -0.0392259 0.997317 0.0618018   
     length 1.65045   
     axis 0 0 0   XYZ
    dof rx ry rz
    limits (-20.0 45.0)
           (-30.0 30.0)
           (-30.0 30.0)
  end
  begin
     id 15 
     name upperneck
     direction 0.0765547 0.994276 -0.0745319   
     length 1.66045   
     axis 0 0 0   XYZ
    dof rx ry rz
    limits (-20.0 45.0)
           (-30.0 30.0)
           (-30.0 30.0)
  end
  begin
     id 16
     name head
     direction 0.0241564 0.999031 -0.036785  
     length 1.66594  
     axis 0 0 0   XYZ
    dof rx ry rz
    limits (-20.0 45.0)
           (-30.0 30.0)
           (-30.0 30.0)
  end
  begin
     id 17 
     name lclavicle
     direction 0.967398 0.249018 0.0461573  
     length 3.75176  
     axis 0 0 0   XYZ
    dof ry rz
    limits (-20.0 10.0)
           (0.0 20.0)
  end
  begin
     id 18 
     name lhumerus
     direction 1 -4.48963e-011 -3.05005e-027   
     length 5.93342   
     axis 180 -30 -90   XYZ
    dof rx ry rz
    limits (-60.0 90.0)
           (-90.0 90.0)
           (-90.0 90.0)
  end
  begin
     id 19
     name lradius
     direction 1 -4.48957e-011 1.07006e-026   
     length 3.94763   
     axis 180 -30 -90   XYZ
    dof rx
    limits (-10.0 170.0)
  end
  begin
     id 20
     name lwrist
     direction 1 -4.48978e-011 1.92422e-026   
     length 1.97382   
     axis -1.18182e-014 90 90   XYZ
    dof ry
    limits (-180.0 0.0)
 end
  begin
     id 21 
     name lhand
     direction 1 -4.48931e-011 3.84844e-026   
     length 0.560187   
     axis -2.45563e-014 90 90   XYZ
    dof rx rz
    limits (-90.0 90.0)
           (-45.0 45.0)
  end
  begin
     id 22 
     name lfingers
     direction 1 -4.48952e-011 7.69687e-026   
     length 0.451637   
     axis -4.91126e-014 90 90   XYZ
    dof rx
    limits (0.0 90.0)
  end
  begin
     id 23
     name lthumb
     direction 0.707107 -6.34901e-011 0.707107   
     length 0.648463   
     axis -90 45 2.85299e-015   XYZ
    dof rx rz
    limits (-45.0 45.0)
           (-45.0 45.0)
  end
  begin
     id 24 
     name rclavicle
     direction -0.965946 0.258716 0.00371831   
     length 3.63667  
     axis 0 0 0   XYZ 
    dof ry rz
    limits (-10.0 20.0)
           (-20.0 0.0)
  end
  begin
     id 25 
     name rhumerus
     direction -1 -4.48966e-011 -1.78361e-028  
     length 6.28647   
     axis 180 30 90   XYZ
    dof rx ry rz
    limits (-90.0 60.0)
           (-90.0 90.0)
           (-90.0 90.0)
  end
  begin
     id 26 
     name rradius
     direction -1 -4.48961e-011 1.05248e-026   
     length 3.81645   
     axis 180 30 90   XYZ
    dof rx
    limits (-10.0 170.0)
  end
  begin
     id 27 
     name rwrist
     direction -1 -4.48979e-011 1.92422e-026   
     length 1.90822   
     axis -1.18182e-014 -90 -90   XYZ
    dof ry
    limits (-180.0 0.0)
  end
  begin
     id 28
     name rhand
     direction -1 -4.48937e-011 3.84844e-026   
     length 0.646185   
     axis -2.45563e-014 -90 -90   XYZ
    dof rx rz
    limits (-90.0 90.0)
           (-45.0 45.0)
  end
  begin
     id 29
     name rfingers
     direction -1 -4.48953e-011 7.69687e-026   
     length 0.520971   
     axis -4.91126e-014 -90 -90   XYZ
    dof rx
    limits (0.0 90.0)
  end
  begin
     id 30
     name rthumb
     direction -0.707107 -6.3494e-011 0.707107   
     length 0.748013   
     axis -90 -45 -2.85299e-015   XYZ
    dof rx rz
    limits (-45.0 45.0)
           (-45.0 45.0)
  end
:hierarchy
  begin
    root lhipjoint rhipjoint lowerback
    lhipjoint lfemur
    lfemur ltibia
    ltibia lfoot
    lfoot ltoes
    rhipjoint rfemur
    rfemur rtibia
    rtibia rfoot
    rfoot rtoes
    lowerback upperback
    upperback thorax
    thorax lowerneck lclavicle rclavicle
    lowerneck upperneck
    upperneck head
    lclavicle lhumerus
    lhumerus lradius
    lradius lwrist
    lwrist lhand lthumb
    lhand lfingers
    rclavicle rhumerus
    rhumerus rradius
    rradius rwrist
    rwrist rhand rthumb
    rhand rfingers
  end

#!OML:ASF H:\HAZMAT1\Patient Classification 1\Patient 3\Session 1\dancer.ASF
:FULLY-SPECIFIED
:DEGREES
45
upperback 5.099530 -11.324500 -1.537240
rfoot -8.094060 -24.425600
lradius 79.946899
lthumb 8.764720 35.429600
rradius 53.341099
lwrist -7.054970
rhand -28.687000 -13.471400
rhumerus -57.933399 12.209400 -74.904198
lowerneck -7.377220 8.143570 5.793980
lhand -17.487700 5.631540
ltibia 53.458199
head 7.418600 5.059180 -1.787550
rwrist 21.101000
lfingers 7.125020
rtoes 0.418061
lowerback 5.526750 -8.485430 0.913337
rfingers 7.125020
lclavicle -0.000000 0.000000
upperneck 18.154699 10.980500 -5.575780
rfemur -56.039700 15.238800 -5.853680
thorax 1.735990 -5.649540 -1.595160
rclavicle -0.000000 0.000000
rtibia 41.056400
lfoot -31.341900 9.883820
lhumerus 16.474800 -41.042702 28.943300
rthumb -2.049420 -43.441299
root 18.770500 18.006001 2.996470 -351.295990 -75.947502 9.576710
ltoes 6.539150
lfemur -38.025002 -18.920799 -17.443199
46
upperback 5.136770 0.103426 -2.726450
rfoot -10.681100 -22.568701
lradius 93.049103
lthumb 2.502600 30.836901
rradius 74.958702
lwrist -16.775200
rhand -27.050200 -8.575650
rhumerus -31.558300 37.361698 -54.297199
lowerneck -10.368800 1.258710 1.260380
lhand -23.973900 0.871837
ltibia 54.306301
head 8.317190 0.455615 2.910290
rwrist 26.299801
lfingers 7.125020
rtoes 4.668880
lowerback 7.343080 0.096897 1.551270
rfingers 7.125020
lclavicle 0.000000 -0.000000
upperneck 21.097000 -0.959458 9.661150
rfemur -48.077801 4.756760 9.524670
thorax 1.203460 0.083847 -3.696120
rclavicle 0.000000 -0.000000
rtibia 43.105801
lfoot -30.838100 2.975610
lhumerus -1.116630 -43.565399 24.214600
rthumb -0.468555 -38.554901
root 18.445601 18.037701 2.354080 -338.063995 -60.893299 -8.233770
ltoes 1.846710
lfemur -37.166599 -23.457899 -6.108940
47
upperback 3.951780 9.154240 -3.557660
rfoot -16.761900 -25.821301
lradius 93.290604
lthumb 0.482760 27.391001
rradius 84.491997
lwrist -18.399000
rhand -29.390400 -6.593140
rhumerus -4.535940 46.155201 -32.724098
lowerneck -7.783380 -8.989660 -5.973790
lhand -26.065201 -2.588160
ltibia 54.654400
head 8.089930 -6.273980 6.419590
rwrist 25.553301
lfingers 7.125020
rtoes 9.798350
lowerback 7.641710 6.840820 2.946460
rfingers 7.125020
lclavicle -0.000000 0.000000
upperneck 14.856300 -15.348800 21.192301
rfemur -46.315601 -1.564570 17.910801
thorax 0.918499 4.654780 -5.860850
rclavicle -0.000000 0.000000
rtibia 45.201599
lfoot -30.806101 -2.250390
lhumerus -18.475800 -28.468901 24.822001
rthumb -2.728720 -36.555401
root 17.997499 18.039801 1.864620 -334.218994 -45.030499 -12.605900
ltoes 0.101353
lfemur -43.288200 -28.205601 6.369440
48
upperback 4.259490 9.176630 -4.653380
rfoot -17.266100 -22.921400
lradius 84.031998
lthumb -3.426060 28.809601
rradius 78.398201
lwrist -22.138201
rhand -26.943199 -3.265080
rhumerus 12.895000 49.541698 -24.685900
lowerneck -4.257640 -11.998300 -7.595530
lhand -30.112499 -1.142640
ltibia 54.319500
head 7.837650 -8.472690 6.203070
rwrist 29.643400
lfingers 7.125020
rtoes 9.308440
lowerback 6.064910 6.898600 1.937430
rfingers 7.125020
lclavicle -0.000000 0.000000
upperneck 13.927200 -19.139799 20.894100
rfemur -47.989899 -9.132780 25.376101
thorax 2.137060 4.692670 -6.210430
rclavicle -0.000000 0.000000
rtibia 48.226601
lfoot -31.323500 -6.125410
lhumerus -28.876900 -21.461201 30.957600
rthumb -0.365229 -33.244499
root 17.547600 17.987700 1.654640 -332.384003 -39.568501 -14.700500
ltoes -0.850503
lfemur -45.249199 -28.434900 12.513800
49
upperback 4.190790 7.635410 -7.451540
rfoot -19.436600 -14.812300
lradius 57.351898
lthumb -8.302020 33.370098
rradius 70.858704
lwrist -21.109100
rhand -27.671700 -1.007210
rhumerus 15.942800 42.962200 -18.402000
lowerneck -3.501960 -9.218980 -4.122660
lhand -35.162899 3.553280
ltibia 57.927101
head 9.027370 -7.122890 6.144580
rwrist 32.752800
lfingers 7.125020
rtoes 6.724880
lowerback 2.371850 5.681150 1.982000
rfingers 7.125020
lclavicle -0.000000 0.000000
upperneck 19.713900 -17.108700 21.046900
rfemur -41.259499 -9.865080 34.593201
thorax 4.369910 4.020940 -8.804450
rclavicle -0.000000 0.000000
rtibia 51.266701
lfoot -33.129601 -5.718360
lhumerus -31.870001 -14.518200 27.456800
rthumb -1.068790 -30.984301
root 16.475800 17.748301 1.421520 -331.156006 -46.063599 -24.601000
ltoes -10.954800
lfemur -32.179699 -27.815100 14.192700
50
upperback 4.150100 6.381640 -7.193700
rfoot -24.835400 -7.833020
lradius 36.952801
lthumb -0.500074 35.068802
rradius 60.701099
lwrist -20.191401
rhand -28.128300 -1.081620
rhumerus 20.562700 24.093599 -8.572460
lowerneck -3.966130 -5.695610 -1.694650
lhand -27.082800 5.089660
ltibia 69.973801
head 10.900900 -5.325700 6.009680
rwrist 31.221100
lfingers 7.125020
rtoes 9.706840
lowerback -0.568817 4.709360 2.291120
rfingers 7.125020
lclavicle 0.000000 0.000000
upperneck 26.514799 -14.121300 20.143999
rfemur -24.671600 -11.032700 42.533501
thorax 5.778150 3.415110 -8.517860
rclavicle 0.000000 0.000000
rtibia 53.027901
lfoot -14.190900 -17.523001
lhumerus -35.314999 -6.901010 24.344400
rthumb -1.509870 -31.056000
root 14.964500 17.343599 1.002930 -330.908997 -52.818901 -39.405701
ltoes -22.444799
lfemur -19.202400 -25.657000 17.229700
51
upperback 4.060500 4.167410 -6.332260
rfoot -29.353800 -3.556200
lradius 29.964899
lthumb 1.832370 35.697601
rradius 51.700500
lwrist -20.240299
rhand -27.547100 1.402900
rhumerus 24.272900 4.509440 -3.757620
lowerneck -4.255890 -5.004990 -2.963450
lhand -24.667801 5.725700
ltibia 74.541397
head 11.524400 -5.184430 6.597300
rwrist 29.188299
lfingers 7.125020
rtoes 12.203100
lowerback -2.288570 3.033430 1.802600
rfingers 7.125020
lclavicle 0.000000 -0.000000
upperneck 27.778601 -13.665200 20.750401
rfemur -16.133301 -15.737900 44.648800
thorax 6.158000 2.272590 -7.381030
rclavicle 0.000000 -0.000000
rtibia 54.951801
lfoot 8.041090 -14.886800
lhumerus -38.780499 -2.535230 24.934700
rthumb -0.948502 -28.574699
root 13.877700 17.029800 0.690828 -332.989990 -54.029301 -43.725399
ltoes -13.539500
lfemur -15.515400 -29.537100 17.952700
52
upperback 4.055550 1.848270 -5.433510
rfoot -27.971701 -6.941790
lradius 27.977900
lthumb 2.540570 37.286301
rradius 44.181599
lwrist -22.130600
rhand -27.846600 -1.015990
rhumerus 29.548901 -12.394100 -7.556660
lowerneck -4.226800 -5.609520 -3.700130
lhand -23.934500 7.321700
ltibia 69.568298
head 10.212700 -5.248040 6.352210
rwrist 29.006599
lfingers 7.125020
rtoes 12.152800
lowerback -0.706882 1.346890 2.531050
rfingers 7.125020
lclavicle 0.000000 -0.000000
upperneck 24.592800 -13.370700 20.138599
rfemur -23.462700 -12.404800 44.260502
thorax 4.884740 1.107940 -7.038430
rclavicle 0.000000 -0.000000
rtibia 54.125500
lfoot -8.980740 -17.740400
lhumerus -40.191799 0.342147 33.123901
rthumb -1.237800 -30.992100
root 14.168000 17.261900 0.650629 -332.170013 -52.140301 -38.051102
ltoes -16.446100
lfemur -18.851500 -26.755699 18.995300
53
upperback 3.749480 -0.729750 -4.167870
rfoot -21.045099 -11.897200
lradius 24.705999
lthumb 2.780870 41.476002
rradius 36.810902
lwrist -26.770201
rhand -30.608500 -6.855550
rhumerus 43.102699 -26.787399 -17.676399
lowerneck -4.599980 -5.909460 -3.684910
lhand -23.685699 11.514400
ltibia 54.130501
head 8.030640 -4.817730 5.467040
rwrist 30.209600
lfingers 7.125020
rtoes 9.097610
lowerback 0.727862 -0.562107 2.702120
rfingers 7.125020
lclavicle 0.000000 0.000000
upperneck 19.349899 -11.844700 17.767401
rfemur -36.894600 -4.426960 32.550301
thorax 3.379940 -0.235147 -5.869810
rclavicle 0.000000 0.000000
rtibia 49.046600
lfoot -30.056999 -6.108860
lhumerus -44.151402 1.301550 42.943699
rthumb -3.905080 -36.799500
root 15.522800 17.987900 1.289080 -330.862000 -54.936798 -24.557100
ltoes -11.880800
lfemur -22.606501 -20.348000 8.413920
